<svg width="512" height="512" xmlns="http://www.w3.org/2000/svg">

 <g>
  <title>background</title>
  <rect fill="none" id="canvas_background" height="402" width="582" y="-1" x="-1"/>
 </g>
 <g>
  <title>Layer 1</title>
  <path fill="#6bb8ff" id="svg_2" d="m256,128c-81.9,0 -145.7,48.8 -224,128c67.4,67.7 124,128 224,128c99.9,0 173.4,-76.4 224,-126.6c-51.8,-58.8 -125.2,-129.4 -224,-129.4zm0,219.3c-49.4,0 -89.6,-41 -89.6,-91.3c0,-50.4 40.2,-91.3 89.6,-91.3s89.6,41 89.6,91.3c0,50.4 -40.2,91.3 -89.6,91.3z"/>
  <path fill="#6bb8ff" id="svg_4" d="m256,224c0,-7.9 2.9,-15.1 7.6,-20.7c-2.5,-0.4 -5,-0.6 -7.6,-0.6c-28.8,0 -52.3,23.9 -52.3,53.3c0,29.4 23.5,53.3 52.3,53.3s52.3,-23.9 52.3,-53.3c0,-2.3 -0.2,-4.6 -0.4,-6.9c-5.5,4.3 -12.3,6.9 -19.8,6.9c-17.8,0 -32.1,-14.3 -32.1,-32z"/>
 </g>
</svg>